<?xml version="1.0" encoding="utf-8"?>
<!-- Generator: Adobe Illustrator 17.1.0, SVG Export Plug-In . SVG Version: 6.00 Build 0)  -->
<!DOCTYPE svg PUBLIC "-//W3C//DTD SVG 1.1//EN" "http://www.w3.org/Graphics/SVG/1.1/DTD/svg11.dtd">
<svg version="1.1" id="Layer_1" xmlns="http://www.w3.org/2000/svg" xmlns:xlink="http://www.w3.org/1999/xlink" x="0px" y="0px"
	 viewBox="0 0 5000 5000" enable-background="new 0 0 5000 5000" xml:space="preserve">
<g>
	<g>
		<path fill="#0A529E" d="M243.9,41.4c28.9,0,55.3,10.6,75.5,28.1c-3.5-4-7.3-7.8-11.3-11.4l2.8-3.8l-18.1-13.2l-2.7,3.7
			c-4.5-2.7-9.1-5.1-13.9-7.2l2-6.2l-21.3-6.9l-2,6.1c-5-1.2-10.2-2-15.4-2.5v-8.9h-22.4v8.8c-5.3,0.5-10.4,1.3-15.4,2.4l-2.7-8.4
			L177.6,29l2.7,8.3c-4.8,2.1-9.5,4.4-13.9,7.1l-5.2-7.2L143,50.4l5.2,7.1c-3.9,3.4-7.6,7.1-11.1,11l-7.2-5.2l-13.2,18.1l7.1,5.2
			c-2.7,4.5-5.1,9.1-7.2,13.9l-8.4-2.7l-6.9,21.3l8.4,2.7c-1.1,5-2,10.2-2.5,15.4h-8.9v22.4h8.8c0.5,5.3,1.3,10.4,2.4,15.4l-8.4,2.7
			l6.9,21.3l8.4-2.7c2.1,4.8,4.4,9.5,7,13.9l-7.2,5.2l13.2,18.1l7.1-5.2c3.4,3.9,7.1,7.6,11,11.1l-3.8,5.3l18.1,13.2l3.8-5.2
			c4.5,2.7,9.1,5.1,13.9,7.2l-1.2,3.7l21.3,6.9l1.2-3.6c5.8,1.3,11.7,2.2,17.8,2.7c-51.6-11.6-90.2-57.6-90.2-112.7
			C128.3,93.1,180.1,41.4,243.9,41.4z"/>
		<path fill="#EA322F" stroke="#FFFFFF" stroke-width="0.5" stroke-miterlimit="10" d="M292,89.7c56.7-6.5,95.6-5.8,97.3,3.3
			c2.7,13.9-81.9,42-189.1,62.9c-45,8.8-86.8,14.9-120.4,18c33.9,2.4,95.9-3.7,165.9-17.3c103.4-20.2,184.8-49.3,181.7-65.1
			C425.1,78.7,368.3,78.6,292,89.7z"/>
		<path fill="#44B049" stroke="#FFFFFF" stroke-width="0.75" stroke-miterlimit="10" d="M288.6,193
			c-75.9,14.8-144.2,19.4-184.9,14.1c-22.8-3-37-9-38.7-18.1c-0.7-3.8,0.7-8,4.2-12.4c1.8-2.3,4.1-4.6,6.9-6.9
			c5.2-4.4,12.1-8.9,20.4-13.4c-0.1-3-0.2-6-0.2-9c-7.7,3-14.9,6-21.5,9c-36,16.2-56.7,32.4-54.2,45.3c2.5,12.9,27.8,20.1,67.2,21.6
			c6.4,0.2,13.2,0.3,20.3,0.3c42.2-0.4,96.3-6.2,154.4-17.6c99-19.3,180.9-49,210.7-74.2C440,153.2,370.7,177,288.6,193z"/>
	</g>
	<g>
		<path fill="#404041" d="M131.3,335.9l-7.1-10.2h-0.4h-7.4v10.2H108v-36.6h15.8c3.2,0,6.1,0.5,8.4,1.6c2.4,1.1,4.2,2.6,5.5,4.6
			c1.3,2,1.9,4.3,1.9,7.1c0,2.7-0.7,5.1-2,7c-1.3,2-3.2,3.5-5.6,4.5l8.2,11.8H131.3z M129.1,307.9c-1.3-1.1-3.3-1.6-5.8-1.6h-6.9
			V319h6.9c2.5,0,4.5-0.6,5.8-1.7c1.3-1.1,2-2.7,2-4.7C131.1,310.6,130.5,309,129.1,307.9z"/>
		<path fill="#404041" d="M153.8,334.1c-3.1-1.6-5.4-3.9-7.2-6.8c-1.7-2.9-2.6-6.1-2.6-9.7c0-3.6,0.9-6.8,2.6-9.7
			c1.7-2.9,4.1-5.1,7.2-6.8c3.1-1.6,6.5-2.5,10.3-2.5c3.8,0,7.2,0.8,10.2,2.5c3,1.6,5.4,3.9,7.2,6.8c1.7,2.9,2.6,6.1,2.6,9.7
			c0,3.6-0.9,6.8-2.6,9.7c-1.7,2.9-4.1,5.1-7.2,6.8c-3,1.6-6.4,2.5-10.2,2.5C160.3,336.6,156.9,335.7,153.8,334.1z M170,327.9
			c1.7-1,3.1-2.4,4.1-4.2c1-1.8,1.5-3.8,1.5-6.1c0-2.3-0.5-4.3-1.5-6.1c-1-1.8-2.4-3.2-4.1-4.2c-1.7-1-3.7-1.5-5.9-1.5
			c-2.2,0-4.1,0.5-5.9,1.5c-1.7,1-3.1,2.4-4.1,4.2c-1,1.8-1.5,3.8-1.5,6.1c0,2.3,0.5,4.3,1.5,6.1c1,1.8,2.4,3.2,4.1,4.2
			c1.7,1,3.7,1.5,5.9,1.5C166.3,329.3,168.2,328.8,170,327.9z"/>
		<path fill="#404041" d="M197.6,306.2h-11.7v-6.9h31.9v6.9H206v29.7h-8.5V306.2z"/>
		<path fill="#404041" d="M244.6,328.1h-17l-3.2,7.8h-8.7l16.3-36.6h8.4l16.4,36.6h-8.9L244.6,328.1z M241.9,321.7l-5.8-14l-5.8,14
			H241.9z"/>
		<path fill="#404041" d="M266.3,306.2h-11.7v-6.9h31.9v6.9h-11.7v29.7h-8.5V306.2z"/>
		<path fill="#404041" d="M291,299.3h8.5v36.6H291V299.3z"/>
		<path fill="#404041" d="M315.6,334.1c-3.1-1.6-5.4-3.9-7.2-6.8c-1.7-2.9-2.6-6.1-2.6-9.7c0-3.6,0.9-6.8,2.6-9.7
			c1.7-2.9,4.1-5.1,7.2-6.8c3.1-1.6,6.5-2.5,10.3-2.5c3.8,0,7.2,0.8,10.2,2.5c3,1.6,5.4,3.9,7.2,6.8c1.7,2.9,2.6,6.1,2.6,9.7
			c0,3.6-0.9,6.8-2.6,9.7c-1.7,2.9-4.1,5.1-7.2,6.8c-3,1.6-6.4,2.5-10.2,2.5C322.1,336.6,318.7,335.7,315.6,334.1z M331.7,327.9
			c1.7-1,3.1-2.4,4.1-4.2c1-1.8,1.5-3.8,1.5-6.1c0-2.3-0.5-4.3-1.5-6.1c-1-1.8-2.4-3.2-4.1-4.2c-1.7-1-3.7-1.5-5.9-1.5
			c-2.2,0-4.1,0.5-5.9,1.5c-1.7,1-3.1,2.4-4.1,4.2c-1,1.8-1.5,3.8-1.5,6.1c0,2.3,0.5,4.3,1.5,6.1c1,1.8,2.4,3.2,4.1,4.2
			c1.7,1,3.7,1.5,5.9,1.5C328,329.3,330,328.8,331.7,327.9z"/>
		<path fill="#404041" d="M385.8,299.3v36.6h-7l-18.2-22.2v22.2h-8.4v-36.6h7l18.2,22.2v-22.2H385.8z"/>
	</g>
	<g>
		<path fill="#404041" d="M156.6,342.1l-10,30.7h-7.6l-6.8-20.8l-7,20.8h-7.6l-10.1-30.7h7.4l6.9,21.6l7.2-21.6h6.6l7,21.8l7.1-21.8
			H156.6z"/>
		<path fill="#404041" d="M166.5,371.3c-2.6-1.4-4.6-3.3-6-5.7c-1.4-2.4-2.2-5.1-2.2-8.1c0-3,0.7-5.7,2.2-8.1c1.4-2.4,3.4-4.3,6-5.7
			c2.6-1.4,5.4-2.1,8.6-2.1c3.2,0,6.1,0.7,8.6,2.1c2.5,1.4,4.5,3.3,6,5.7c1.5,2.4,2.2,5.1,2.2,8.1c0,3-0.7,5.7-2.2,8.1
			c-1.5,2.4-3.5,4.3-6,5.7c-2.5,1.4-5.4,2.1-8.6,2.1C171.9,373.3,169,372.6,166.5,371.3z M180,366c1.5-0.8,2.6-2,3.4-3.5
			c0.8-1.5,1.2-3.2,1.2-5.1c0-1.9-0.4-3.6-1.2-5.1c-0.8-1.5-2-2.7-3.4-3.5c-1.5-0.8-3.1-1.3-4.9-1.3c-1.8,0-3.5,0.4-4.9,1.3
			c-1.5,0.8-2.6,2-3.4,3.5c-0.8,1.5-1.3,3.2-1.3,5.1c0,1.9,0.4,3.6,1.3,5.1c0.8,1.5,2,2.7,3.4,3.5c1.5,0.8,3.1,1.3,4.9,1.3
			C176.9,367.3,178.5,366.8,180,366z"/>
		<path fill="#404041" d="M216.8,372.8l-5.9-8.6h-0.3h-6.2v8.6h-7.1v-30.7h13.3c2.7,0,5.1,0.5,7.1,1.4c2,0.9,3.5,2.2,4.6,3.9
			c1.1,1.7,1.6,3.6,1.6,5.9c0,2.3-0.5,4.2-1.6,5.9c-1.1,1.7-2.7,2.9-4.7,3.8l6.9,9.9H216.8z M215,349.3c-1.1-0.9-2.7-1.4-4.9-1.4
			h-5.8v10.7h5.8c2.1,0,3.8-0.5,4.9-1.4c1.1-0.9,1.7-2.2,1.7-3.9C216.7,351.5,216.1,350.2,215,349.3z"/>
		<path fill="#404041" d="M229.5,342.1h7.1V367H252v5.8h-22.5V342.1z"/>
		<path fill="#404041" d="M256,342.1h14c3.3,0,6.3,0.6,8.8,1.9c2.6,1.3,4.5,3.1,6,5.4c1.4,2.3,2.1,5,2.1,8.1c0,3.1-0.7,5.8-2.1,8.1
			c-1.4,2.3-3.4,4.1-6,5.4c-2.6,1.3-5.5,1.9-8.8,1.9h-14V342.1z M269.6,367c3.1,0,5.5-0.9,7.3-2.6c1.8-1.7,2.7-4,2.7-7
			c0-2.9-0.9-5.2-2.7-7c-1.8-1.7-4.3-2.6-7.3-2.6h-6.5v19H269.6z"/>
		<path fill="#404041" d="M304.6,342.1h7.1V367h15.4v5.8h-22.5V342.1z"/>
		<path fill="#404041" d="M334.7,347.9h-9.8v-5.8h26.8v5.8h-9.8v24.9h-7.1V347.9z"/>
		<path fill="#404041" d="M355.4,342.1h14c3.3,0,6.3,0.6,8.8,1.9c2.6,1.3,4.5,3.1,6,5.4c1.4,2.3,2.1,5,2.1,8.1
			c0,3.1-0.7,5.8-2.1,8.1c-1.4,2.3-3.4,4.1-6,5.4c-2.6,1.3-5.5,1.9-8.8,1.9h-14V342.1z M369,367c3.1,0,5.5-0.9,7.3-2.6
			c1.8-1.7,2.7-4,2.7-7c0-2.9-0.9-5.2-2.7-7c-1.8-1.7-4.3-2.6-7.3-2.6h-6.5v19H369z"/>
	</g>
</g>
</svg>
